# xmcd CD database file
#
# Track frame offsets:
#	150
#	13292
#	29049
#	43091
#	57096
#	70037
#	83123
#	95581
#	110109
#	121662
#	133649
#	149055
#	162747
#	176444
#	187797
#
# Disc length: 2640 seconds
#
# Revision: 3
# Processed by: cddbd v1.5.2PL0 Copyright (c) Steve Scherf et al.
# Submitted via: CDex 1.70beta2
#
DISCID=d80a4e0f
DTITLE=jazz - ジャズピアノ名演集７
DYEAR=1900
DGENRE=Jazz
TTITLE0=Conversation
TTITLE1=Way Back Blues
TTITLE2=Afternoon In Paris
TTITLE3=East Of The Sun
TTITLE4=You`ll Be Sorry
TTITLE5=Indiana
TTITLE6=I`ve Got Rhythm
TTITLE7=Introspection
TTITLE8=I`ve Got You Under My Skin
TTITLE9=Fine And Dandy
TTITLE10=My Heart Stood Still
TTITLE11=Suburban
TTITLE12=Chant Of The Groove
TTITLE13=Lopin`
TTITLE14=I Never Knew
EXTD=
EXTT0=
EXTT1=
EXTT2=
EXTT3=
EXTT4=
EXTT5=
EXTT6=
EXTT7=
EXTT8=
EXTT9=
EXTT10=
EXTT11=
EXTT12=
EXTT13=
EXTT14=
PLAYORDER=
